<?xml version="1.0" encoding="UTF-8"?>
<svg width="226px" height="201px" viewBox="0 0 226 201" version="1.1" xmlns="http://www.w3.org/2000/svg" xmlns:xlink="http://www.w3.org/1999/xlink">
    <title>桌面端 HD备份</title>
    <g id="页面-1" stroke="none" stroke-width="1" fill="none" fill-rule="evenodd">
        <g id="桌面端-HD备份" transform="translate(-930.000000, -184.000000)">
            <g id="编组" transform="translate(1043.624024, 283.940274) rotate(10.000000) translate(-1043.624024, -283.940274) translate(943.624024, 199.440274)">
                <path d="M195.510963,34.179319 C187.079546,30.5277289 178.477279,28.1494365 169.70416,27.0444418 C150.041394,24.5678709 130.313652,31.4000588 121.424402,38.1922555 C108.269087,48.2441151 104.800138,62.1522396 109.264187,67.5009851 C110.845185,69.395309 114.246089,70.948488 118.13746,70.3128319 C122.028832,69.6771757 124.63201,63.7597786 119.025545,60.2966258 C109.677487,54.5222647 76.940572,60.7115777 62.3988496,75.4611281 C52.704368,85.2941617 47.4084058,99.6490247 46.5109629,118.525717" id="路径" stroke="#69C5FF" stroke-width="3" stroke-dasharray="7"></path>
                <polygon id="三角形" fill="#69C5FF" transform="translate(45.648649, 131.246074) rotate(-176.000000) translate(-45.648649, -131.246074) " points="45.6486486 116.110939 60.7837838 146.381209 30.5135135 146.381209"></polygon>
            </g>
        </g>
    </g>
</svg>