<?xml version="1.0" encoding="UTF-8"?>
<svg width="161px" height="151px" viewBox="0 0 161 151" version="1.1" xmlns="http://www.w3.org/2000/svg" xmlns:xlink="http://www.w3.org/1999/xlink">
    <title>编组 2</title>
    <g id="页面-1" stroke="none" stroke-width="1" fill="none" fill-rule="evenodd">
        <g id="桌面端-HD" transform="translate(-882.000000, -418.000000)" fill-rule="nonzero">
            <g id="编组-2" transform="translate(686.000000, 356.000000)">
                <g id="编组" transform="translate(196.000000, 62.000000)">
                    <g id="rule-dir-open" transform="translate(0.000000, 60.336689)">
                        <path d="M98.2930246,11.6333359 L52.5080718,11.6333359 L41.0618337,0.178790458 L12.4462382,0.178790458 C5.9055307,0.178790458 1,5.08788133 1,11.6333359 L1,78.724245 C1,85.2696995 5.90553061,90.1787905 12.4462382,90.1787905 L100.74579,90.1787905 C105.651321,90.1787905 108.921674,86.9060632 108.921674,81.9969723 L108.921674,22.2696996 C109.739263,16.5424269 104.016144,11.6333359 98.2930246,11.6333359 Z" id="路径" fill="#00A0FF"></path>
                        <path d="M110.255505,29.1787905 L33.2886927,29.1787905 C27.5571216,29.1787905 22.6443463,33.2454572 21.8255505,38.1254571 L12,90.1787905 L102.886342,90.1787905 C108.617913,90.1787905 113.530688,86.1121238 114.349484,81.2321238 L121.718647,42.1921237 C123.356239,35.6854571 117.624668,29.1787905 110.255505,29.1787905 L110.255505,29.1787905 Z" id="路径" fill="#69C5FF"></path>
                    </g>
                    <g id="rili" transform="translate(43.000000, 0.000000)">
                        <path d="M12.5864029,16.4117202 L80.8513633,16.4915374 C82.852324,16.4942085 84.7667488,17.3221511 86.148614,18.7824708 C87.5304793,20.2427906 88.2591125,22.2079638 88.1647564,24.2201436 L86.5686711,58.2282527 L7.086315,58.1353257 L5.29112626,24.1502535 C5.1844593,22.1332847 5.90509487,20.1626599 7.28438015,18.699571 C8.66366543,17.2364821 10.5805443,16.4093406 12.5864029,16.4117202 Z" id="路径" fill="#C5C5C5" transform="translate(46.726834, 37.319986) rotate(-26.000000) translate(-46.726834, -37.319986) "></path>
                        <path d="M13.4564917,26.9873642 L91.1284853,27.0781821 C93.2227781,27.080784 95.2170435,27.9921639 96.6035613,29.5802935 C97.9900791,31.1684231 98.6350808,33.2800827 98.3743552,35.3776646 L94.2143131,68.8118205 L10.5559543,68.7140112 L6.23006727,35.2895751 C5.95834402,33.1882326 6.59562697,31.0726196 7.97912326,29.4831659 C9.36261954,27.8937121 11.3583438,26.984349 13.4564917,26.9873642 Z" id="路径" fill="#3866D0" transform="translate(52.299869, 47.899592) rotate(-26.000000) translate(-52.299869, -47.899592) "></path>
                        <path d="M32.9177729,103.231043 L106.990809,103.317652 C109.044465,103.320305 111.002002,102.457629 112.382284,100.941651 C113.762566,99.4256739 114.437605,97.3969663 114.241484,95.3541579 L111.271657,64.4705529 L27.6539033,64.372791 L25.6316503,95.4569612 C25.5008403,97.4681849 26.210155,99.4456059 27.5908312,100.918747 C28.9715073,102.391889 30.9001084,103.229047 32.9177729,103.231043 L32.9177729,103.231043 Z" id="路径" fill="#4688F4" transform="translate(69.945566, 83.845221) rotate(-26.000000) translate(-69.945566, -83.845221) "></path>
                        <path d="M69.7444767,103.056828 L106.976523,103.100364 C109.028095,103.103015 110.983646,102.240337 112.362526,100.724358 C113.741407,99.2083786 114.415758,97.1796703 114.219834,95.1368622 L111.252982,64.2532624 L27.7200441,64.1555997 L64.5969049,100.926086 C65.9652306,102.289783 67.8174049,103.056096 69.7469049,103.056831 L69.7444767,103.056828 Z" id="路径" fill="#437BE4" transform="translate(70.986600, 83.627982) rotate(-26.000000) translate(-70.986600, -83.627982) "></path>
                        <path d="M55.3575435,16.9352349 C55.3591743,18.3259956 56.4899926,19.4547504 57.8832987,19.4563812 C59.2766047,19.4580084 60.4047819,18.3318947 60.4031547,16.941134 C60.401524,15.5503733 59.2707057,14.4216185 57.8773996,14.4199877 C56.4840935,14.4183605 55.3559163,15.5444742 55.3575435,16.9352349 L55.3575435,16.9352349 Z" id="路径" fill="#EFEFEF" transform="translate(57.880349, 16.938184) rotate(-26.000000) translate(-57.880349, -16.938184) "></path>
                        <path d="M17.9515148,35.154481 C17.9531456,36.5452416 19.0839639,37.6739965 20.47727,37.6756272 C21.870576,37.6772545 22.9987532,36.5511407 22.997126,35.1603801 C22.9954953,33.7696194 21.864677,32.6408645 20.4713709,32.6392338 C19.0780648,32.6376066 17.9498876,33.7637203 17.9515148,35.154481 Z" id="路径" fill="#EFEFEF" transform="translate(20.474320, 35.157431) rotate(-26.000000) translate(-20.474320, -35.157431) "></path>
                        <path d="M48.8509138,48.4919066 C52.5138548,48.4919066 55.5303943,49.3980165 57.7927991,51.2635367 C60.001337,53.1290569 61.1325394,55.634184 61.1325393,58.8322188 C61.1325393,63.0962651 59.0317349,65.9744963 54.8301262,67.3603112 C57.0925309,68.0532187 58.8162678,69.1192303 60.0013369,70.6116465 C61.2941396,72.1040626 61.9405409,73.9695829 61.9405409,76.2082071 C61.9405409,79.6727447 60.701605,82.4976753 58.2776001,84.682999 C55.7997283,86.9216233 52.5677217,88.0409355 48.58158,88.0409355 C44.9186391,88.0409355 41.9559663,87.081525 39.6396948,85.2693054 C36.8924891,83.0306812 35.3842194,79.7793459 35.0610187,75.5152997 L39.5319613,75.5152997 C39.6396949,78.5001321 40.6631637,80.7920569 42.5485008,82.3377737 C44.1645042,83.6169876 46.1575749,84.309895 48.58158,84.309895 C51.3287857,84.309895 53.5373237,83.5103864 55.2071937,81.9646696 C56.7154635,80.4722534 57.5234652,78.6067332 57.5234652,76.3681089 C57.5234652,74.0761841 56.7693302,72.317265 55.2610605,71.0380511 C53.7527907,69.7588372 51.7058531,69.1725308 49.0125142,69.1725308 L45.8882411,69.1725308 L45.8882411,65.7612939 L48.8509138,65.7612939 C51.4365192,65.7612939 53.3757232,65.1749875 54.7223927,64.0556754 C56.0690622,62.8830627 56.7693303,61.2307447 56.7693302,59.0987216 C56.7693302,56.9666985 56.0690622,55.3143805 54.7762595,54.1417679 C53.3757232,52.862554 51.3826525,52.2762476 48.9047807,52.2762477 C46.3191754,52.2762477 44.3261046,52.9158546 42.8717015,54.3016696 C41.3634317,55.6874847 40.5015632,57.659606 40.2322294,60.2180338 L35.8690204,60.2180338 C36.192221,56.5402939 37.5927573,53.6620627 39.9628955,51.5833401 C42.2253001,49.5046176 45.1879729,48.4919066 48.8509138,48.4919066 L48.8509138,48.4919066 Z M78.4923328,49.2381148 L81.9398066,49.2381148 L81.9398066,87.2947274 L77.5227308,87.2947274 L77.5227308,54.5681725 C75.0987258,57.0199991 72.0821862,58.7256176 68.4731121,59.7916292 L68.4731121,55.4209817 C70.3605331,54.8886324 72.170938,54.118341 73.8597899,53.1290569 C75.5761133,52.0472419 77.1347531,50.7381148 78.4923328,49.2381148 Z" id="形状" fill="#FFFFFF" transform="translate(58.500413, 68.266421) rotate(-26.000000) translate(-58.500413, -68.266421) "></path>
                        <path d="M44.369722,49.1604065 C47.9822221,49.1604065 50.957222,50.0665842 53.1884721,51.9322441 C55.3665971,53.797904 56.482222,56.3032187 56.482222,59.5014929 C56.482222,63.7658585 54.410347,66.6443052 50.266597,68.0302239 C50.3076482,68.0423386 50.5322221,68.1247184 50.9354891,68.2725174 L41.4478471,68.2725174 L41.4478471,66.4310869 L44.369722,66.4310869 C46.919722,66.4310869 48.832222,65.8447366 50.1603471,64.7253406 C51.4884721,63.5526401 52.1790971,61.9001984 52.179097,59.7680157 C52.179097,57.635833 51.4884721,55.9833913 50.2134721,54.8106908 C48.832222,53.5313811 46.8665971,52.9450308 44.4228471,52.9450309 C41.8728471,52.9450309 39.9072221,53.5846858 38.472847,54.9706045 C36.9853471,56.3565233 36.135347,58.3287923 35.8697221,60.8874116 L31.5665971,60.8874116 C31.8853471,57.2093964 33.2665971,54.3309497 35.604097,52.2520715 C37.835347,50.1731933 40.757222,49.1604065 44.369722,49.1604065 L44.369722,49.1604065 Z M73.6029607,49.9066705 L77.0029607,49.9066705 L77.0029607,68.5753843 L72.6467107,68.5753843 L72.6467107,55.2371274 C70.2560857,57.6891375 67.2810857,59.3948837 63.7217107,60.4609752 L63.7217107,56.0900004 C65.5831408,55.5576113 67.3686153,54.7872622 69.0342107,53.797904 C70.7268993,52.716008 72.2640757,51.4067851 73.6029607,49.9066705 L73.6029607,49.9066705 Z" id="形状" fill="#D3D3D3" transform="translate(54.284779, 58.867895) rotate(-26.000000) translate(-54.284779, -58.867895) "></path>
                    </g>
                    <path d="M110.255505,89.0138386 L33.2886927,89.0138386 C27.5571216,89.0138386 22.6443463,93.1030357 21.8255505,98.0100721 L12,150.351795 L102.886342,150.351795 C108.617913,150.351795 113.530688,146.262598 114.349484,141.355561 L121.718647,102.099269 C123.356239,95.5565539 117.624668,89.0138386 110.255505,89.0138386 L110.255505,89.0138386 Z" id="路径" fill="#69C5FF"></path>
                </g>
            </g>
        </g>
    </g>
</svg>